<?xml version="1.0" encoding="UTF-8" standalone="no"?>
<svg
   xmlns:dc="http://purl.org/dc/elements/1.1/"
   xmlns:cc="http://creativecommons.org/ns#"
   xmlns:rdf="http://www.w3.org/1999/02/22-rdf-syntax-ns#"
   xmlns:svg="http://www.w3.org/2000/svg"
   xmlns="http://www.w3.org/2000/svg"
   viewBox="0 0 113.38667 48.773335"
   height="48.773335"
   width="113.38667"
   xml:space="preserve"
   id="svg2"
   version="1.1"><metadata
     id="metadata8"><rdf:RDF><cc:Work
         rdf:about=""><dc:format>image/svg+xml</dc:format><dc:type
           rdf:resource="http://purl.org/dc/dcmitype/StillImage" /></cc:Work></rdf:RDF></metadata><defs
     id="defs6" /><g
     transform="matrix(1.3333333,0,0,-1.3333333,0,48.773333)"
     id="g10"><g
       transform="scale(0.1)"
       id="g12"><path
         id="path14"
         style="fill:#0b776e;fill-opacity:1;fill-rule:nonzero;stroke:none"
         d="m 436.609,307.449 c 0,38.535 -23.464,53.946 -61.308,53.946 -19.629,0 -36.082,-2.801 -54.305,-8.059 v -36.082 c 17.527,8.059 34.336,11.211 51.16,11.211 16.457,0 25.567,-8.059 25.567,-21.379 v -6.297 c -61.66,-1.758 -88.289,-28.391 -88.289,-60.969 0,-31.875 20.32,-50.797 60.964,-50.797 23.829,0 38.899,4.559 66.926,4.559 -1.066,8.762 -1.769,23.816 -1.769,37.481 0,25.929 1.054,49.414 1.054,76.386 z m -40.293,-77.441 c -1.394,-4.891 -8.054,-8.758 -22.07,-8.758 -15.058,0 -24.871,8.758 -24.871,21.375 0,18.563 16.473,28.379 48.348,29.434 0,-21.016 -0.352,-36.797 -1.407,-42.051 z m 102.965,84.453 c 0,8.398 8.399,14.004 21.719,14.004 11.211,0 22.773,-1.746 39.219,-8.41 v 36.437 c -14.004,3.848 -24.864,4.903 -37.813,4.903 -39.258,0 -63.066,-19.61 -63.066,-51.145 0,-47.996 69.004,-43.797 69.004,-71.473 0,-10.871 -9.453,-17.879 -28.028,-17.879 -11.211,0 -26.972,2.11 -40.273,6.657 V 193.23 c 13.652,-4.207 28.359,-5.605 42.734,-5.605 45.547,0 65.157,26.27 65.157,53.602 0,50.453 -68.653,48.007 -68.653,73.234 z m 163.653,46.934 c -45.899,0 -79.161,-32.579 -79.161,-85.481 0,-61.305 35.372,-88.289 84.766,-88.289 11.582,0 28.379,1.398 42.754,5.957 v 34.324 c -13.32,-5.945 -28.379,-7.351 -40.996,-7.351 -26.973,0 -45.176,17.168 -45.176,44.148 v 5.258 h 98.438 c 1.386,9.805 1.738,17.164 1.738,23.125 0,38.883 -18.926,68.309 -62.363,68.309 z m 14.726,-60.957 h -49.062 c 2.812,16.816 13.672,29.07 32.246,29.07 17.168,0 24.531,-9.102 24.531,-21.707 0,-4.551 -2.461,-7.363 -7.715,-7.363 z m -503.812,-25.93 c 0,-57.813 33.632,-87.235 84.082,-87.235 9.453,0 18.562,1.055 29.07,3.157 v 33.633 c -8.406,-1.399 -16.102,-2.454 -27.324,-2.454 -26.629,0 -43.438,15.071 -43.438,52.899 0,37.844 16.809,51.859 42.735,51.859 11.574,0 18.918,-1.054 28.027,-3.859 v 35.742 c -9.109,2.09 -18.211,2.805 -29.07,2.805 -53.957,0 -84.082,-33.645 -84.082,-86.547 z M 824.398,362 c -36.289,0 -40.566,-8.172 -75.429,-8.172 V 190.887 h 39.14 v 121.668 c 0,8.89 9.961,14.582 27.032,14.582 1.64,0 3.242,-0.067 4.785,-0.196 7.91,-0.519 20.293,-2.168 30.469,-5.175 v 36.191 C 842.387,360.75 833.52,362 824.398,362" /><path
         id="path16"
         style="fill:#f46920;fill-opacity:1;fill-rule:nonzero;stroke:none"
         d="m 99.8516,201.063 c 15.9294,0 47.0234,-3.274 60.7814,-9.161 -43.106,47.762 -32.528,130.442 0,173.946 C 67.7031,337.684 0,266.773 0,164.648 0,162.391 0.0390625,160.156 0.0976563,157.93 19.6289,192.84 57.0117,201.063 99.8516,201.063" /><path
         id="path18"
         style="fill:#f46920;fill-opacity:1;fill-rule:nonzero;stroke:none"
         d="m 237.148,107.957 c 5.411,0 9.93,-0.441 15.782,-2.051 V 90.7109 c -6.875,2.7813 -11.692,3.5157 -16.367,3.5157 -5.547,0 -9.055,-2.3438 -9.055,-5.8516 0,-10.5156 28.633,-9.4922 28.633,-30.5234 0,-11.3985 -8.184,-22.3555 -27.176,-22.3555 -5.988,0 -12.121,0.5859 -17.824,2.332 v 14.3203 c 5.558,-1.8984 12.129,-2.7734 16.797,-2.7734 7.746,0 11.691,2.918 11.691,7.4492 0,11.543 -28.781,9.7852 -28.781,29.8047 0,13.1445 9.941,21.3281 26.3,21.3281" /><path
         id="path20"
         style="fill:#f46920;fill-opacity:1;fill-rule:nonzero;stroke:none"
         d="m 282.852,69.8203 c 0,-0.5859 0,-1.6015 0,-2.1875 0,-11.25 7.597,-18.4062 18.847,-18.4062 5.262,0 11.543,0.5859 17.098,3.0664 V 37.9766 c -5.996,-1.8946 -13.008,-2.4805 -17.82,-2.4805 -20.606,0 -35.352,11.25 -35.352,36.8164 0,22.0508 13.875,35.6445 33.008,35.6445 18.113,0 26.004,-12.2773 26.004,-28.4882 0,-2.4883 -0.145,-5.5547 -0.731,-9.6485 z m 21.921,12.7188 c 2.188,0 3.204,1.1601 3.204,3.0625 0,5.2578 -3.055,9.0625 -10.223,9.0625 -7.746,0 -12.266,-5.1172 -13.438,-12.125 h 20.457" /><path
         id="path22"
         style="fill:#f46920;fill-opacity:1;fill-rule:nonzero;stroke:none"
         d="m 376.191,39 c -2.05,-1.6094 -5.851,-3.0625 -12.128,-3.0625 -14.61,0 -30.391,12.2656 -30.391,35.3516 0,23.8047 14.754,36.6679 32.578,36.6679 9.648,0 16.219,-2.344 26.152,-2.344 -0.285,-12.8513 -0.285,-24.9802 -0.285,-38.4177 V 27.4609 C 392.117,7.87891 375.898,0 359.395,0 353.984,0 348.281,0.429688 341.414,2.47656 V 17.0859 c 6.731,-2.1953 13.156,-2.9179 17.832,-2.9179 8.176,0 16.945,3.0664 16.945,12.5586 z m -8.769,10.8125 c 4.969,0 8.769,2.1875 8.769,4.6797 v 35.0547 c 0,2.3359 -3.371,4.6797 -8.769,4.6797 -10.227,0 -16.074,-7.1563 -16.074,-22.6485 0,-15.3398 5.847,-21.7656 16.074,-21.7656" /><path
         id="path24"
         style="fill:#f46920;fill-opacity:1;fill-rule:nonzero;stroke:none"
         d="m 450.512,55.7969 v 50.1091 h 16.074 V 38.7109 c -13.574,0 -16.211,-2.9218 -30.094,-2.9218 -14.023,0 -26.004,6.5703 -26.004,24.539 v 45.5779 h 16.219 V 62.3711 c 0,-8.9063 4.824,-12.2656 13.004,-12.2656 6.719,0 10.801,1.6015 10.801,5.6914" /><path
         id="path26"
         style="fill:#f46920;fill-opacity:1;fill-rule:nonzero;stroke:none"
         d="m 485.121,37.5391 v 68.3669 h 15.195 v -6.4255 c 4.082,6.4255 10.957,8.6215 17.676,8.6215 2.93,0 5.254,-0.289 7.442,-0.586 V 90.5742 c -2.774,1.3086 -7.149,1.8946 -11.25,1.8946 -6.563,0 -12.403,-2.625 -12.715,-8.3282 -0.274,-11.5351 -0.274,-29.2109 -0.274,-46.6015 h -16.074" /><path
         id="path28"
         style="fill:#f46920;fill-opacity:1;fill-rule:nonzero;stroke:none"
         d="m 593.656,71.875 c 0,-21.4844 -12.422,-36.3789 -31.562,-36.3789 -18.848,0 -31.406,14.8945 -31.406,36.3789 0,21.7656 12.558,36.082 31.406,36.082 19.14,0 31.562,-14.3164 31.562,-36.082 z m -45.586,0 c 0,-14.7578 6.426,-22.0625 14.453,-22.0625 7.891,0 13.887,6.7188 13.887,22.0625 0,14.6094 -6.426,21.9141 -14.609,21.9141 -7.891,0 -13.731,-6.5743 -13.731,-21.9141" /><path
         id="path30"
         style="fill:#f46920;fill-opacity:1;fill-rule:nonzero;stroke:none"
         d="m 630.004,107.957 c 5.391,0 9.922,-0.441 15.762,-2.051 V 90.7109 c -6.856,2.7813 -11.68,3.5157 -16.348,3.5157 -5.547,0 -9.063,-2.3438 -9.063,-5.8516 0,-10.5156 28.633,-9.4922 28.633,-30.5234 0,-11.3985 -8.183,-22.3555 -27.168,-22.3555 -5.996,0 -12.129,0.5859 -17.832,2.332 v 14.3203 c 5.567,-1.8984 12.129,-2.7734 16.797,-2.7734 7.754,0 11.699,2.918 11.699,7.4492 0,11.543 -28.789,9.7852 -28.789,29.8047 0,13.1445 9.942,21.3281 26.309,21.3281" /></g></g></svg>