<?xml version="1.0" encoding="UTF-8" standalone="no"?>
<svg
   xmlns:dc="http://purl.org/dc/elements/1.1/"
   xmlns:cc="http://creativecommons.org/ns#"
   xmlns:rdf="http://www.w3.org/1999/02/22-rdf-syntax-ns#"
   xmlns:svg="http://www.w3.org/2000/svg"
   xmlns="http://www.w3.org/2000/svg"
   viewBox="0 0 113.38667 33.826668"
   height="33.826668"
   width="113.38667"
   xml:space="preserve"
   id="svg2"
   version="1.1"><metadata
     id="metadata8"><rdf:RDF><cc:Work
         rdf:about=""><dc:format>image/svg+xml</dc:format><dc:type
           rdf:resource="http://purl.org/dc/dcmitype/StillImage" /></cc:Work></rdf:RDF></metadata><defs
     id="defs6" /><g
     transform="matrix(1.3333333,0,0,-1.3333333,0,33.826667)"
     id="g10"><g
       transform="scale(0.1)"
       id="g12"><path
         id="path14"
         style="fill:#0b776e;fill-opacity:1;fill-rule:nonzero;stroke:none"
         d="m 302.723,213.172 c 0,26.719 -16.27,37.414 -42.5,37.414 -13.614,0 -25.028,-1.945 -37.657,-5.598 v -25.019 c 12.149,5.586 23.801,7.773 35.469,7.773 11.406,0 17.727,-5.586 17.727,-14.812 v -4.375 c -42.754,-1.211 -61.223,-19.68 -61.223,-42.266 0,-22.101 14.094,-35.219 42.277,-35.219 16.524,0 26.973,3.157 46.395,3.157 -0.731,6.074 -1.219,16.515 -1.219,25.996 0,17.968 0.731,34.246 0.731,52.949 z m -27.938,-53.68 c -0.969,-3.398 -5.586,-6.078 -15.305,-6.078 -10.437,0 -17.234,6.078 -17.234,14.816 0,12.872 11.414,19.676 33.516,20.403 0,-14.57 -0.235,-25.5 -0.977,-29.141 z m 71.387,58.543 c 0,5.82 5.828,9.707 15.058,9.707 7.774,0 15.79,-1.211 27.208,-5.828 v 25.262 c -9.719,2.676 -17.247,3.41 -26.231,3.41 -27.207,0 -43.723,-13.606 -43.723,-35.469 0,-33.273 47.852,-30.363 47.852,-49.554 0,-7.54 -6.563,-12.391 -19.441,-12.391 -7.766,0 -18.704,1.453 -27.93,4.609 v -23.797 c 9.48,-2.914 19.676,-3.89 29.637,-3.89 31.582,0 45.187,18.226 45.187,37.172 0,34.968 -47.617,33.281 -47.617,50.769 z m 113.48,32.551 c -31.82,0 -54.898,-22.602 -54.898,-59.281 0,-42.5 24.531,-61.211 58.785,-61.211 8.027,0 19.668,0.976 29.649,4.133 v 23.796 c -9.239,-4.117 -19.688,-5.093 -28.438,-5.093 -18.691,0 -31.324,11.902 -31.324,30.601 v 3.657 h 68.258 c 0.957,6.796 1.211,11.89 1.211,16.031 0,26.953 -13.125,47.367 -43.243,47.367 z m 10.215,-42.277 h -34.019 c 1.945,11.66 9.468,20.168 22.34,20.168 11.914,0 17.011,-6.321 17.011,-15.063 0,-3.152 -1.699,-5.105 -5.332,-5.105 z M 120.535,190.34 c 0,-40.078 23.32,-60.488 58.301,-60.488 6.555,0 12.871,0.734 20.156,2.187 v 23.32 c -5.828,-0.968 -11.16,-1.699 -18.945,-1.699 -18.465,0 -30.117,10.449 -30.117,36.68 0,26.23 11.652,35.949 29.629,35.949 8.019,0 13.117,-0.734 19.433,-2.68 v 24.789 c -6.316,1.454 -12.625,1.942 -20.156,1.942 -37.41,0 -58.301,-23.32 -58.301,-60 z m 451.07,60.652 c -25.175,0 -28.125,-5.664 -52.304,-5.664 V 132.352 h 27.129 v 84.367 c 0,6.16 6.914,10.105 18.75,10.105 1.152,0 2.246,-0.051 3.32,-0.136 5.488,-0.352 14.082,-1.504 21.113,-3.586 v 25.089 c -5.547,1.942 -11.679,2.801 -18.008,2.801" /><path
         id="path16"
         style="fill:#f46920;fill-opacity:1;fill-rule:nonzero;stroke:none"
         d="m 69.2383,139.414 c 11.0351,0 32.5977,-2.266 42.1367,-6.351 -29.8828,33.117 -22.5586,90.441 0,120.597 C 46.9414,234.141 0,184.969 0,114.168 0,112.605 0.0273438,111.055 0.0664063,109.5 13.6016,133.711 39.5313,139.414 69.2383,139.414" /><path
         id="path18"
         style="fill:#f46920;fill-opacity:1;fill-rule:nonzero;stroke:none"
         d="m 164.434,74.8594 c 3.738,0 6.882,-0.3125 10.937,-1.4219 V 62.9063 c -4.766,1.9257 -8.105,2.4335 -11.348,2.4335 -3.847,0 -6.281,-1.621 -6.281,-4.0507 0,-7.2969 19.856,-6.586 19.856,-21.1719 0,-7.9024 -5.676,-15.5 -18.848,-15.5 -4.152,0 -8.398,0.3984 -12.355,1.6211 v 9.9336 c 3.859,-1.3203 8.41,-1.9375 11.652,-1.9375 5.371,0 8.105,2.0312 8.105,5.1679 0,8.0079 -19.961,6.7852 -19.961,20.6641 0,9.1211 6.895,14.793 18.243,14.793" /><path
         id="path20"
         style="fill:#f46920;fill-opacity:1;fill-rule:nonzero;stroke:none"
         d="m 196.121,48.4258 c 0,-0.4102 0,-1.1211 0,-1.5235 0,-7.8007 5.266,-12.7617 13.067,-12.7617 3.644,0 8,0.4063 11.847,2.125 v -9.9297 c -4.152,-1.3203 -9.015,-1.7187 -12.355,-1.7187 -14.285,0 -24.512,7.8047 -24.512,25.5273 0,15.293 9.621,24.7149 22.891,24.7149 12.558,0 18.027,-8.5156 18.027,-19.7539 0,-1.7188 -0.098,-3.8477 -0.508,-6.6797 z m 15.195,8.8086 c 1.516,0 2.227,0.8125 2.227,2.1289 0,3.6445 -2.129,6.2773 -7.098,6.2773 -5.363,0 -8.507,-3.5429 -9.308,-8.4062 h 14.179" /><path
         id="path22"
         style="fill:#f46920;fill-opacity:1;fill-rule:nonzero;stroke:none"
         d="m 260.828,27.0469 c -1.414,-1.1094 -4.051,-2.125 -8.406,-2.125 -10.129,0 -21.067,8.5039 -21.067,24.5078 0,16.5156 10.227,25.4297 22.59,25.4297 6.68,0 11.239,-1.6172 18.125,-1.6172 -0.195,-8.918 -0.195,-17.3281 -0.195,-26.6406 V 19.0508 C 271.875,5.47656 260.625,0 249.18,0 245.43,0 241.484,0.3125 236.727,1.72656 V 11.8516 c 4.66,-1.5235 9.113,-2.01957 12.355,-2.01957 5.672,0 11.746,2.12107 11.746,8.71097 z m -6.074,7.5 c 3.449,0 6.074,1.5156 6.074,3.2422 v 24.3086 c 0,1.6211 -2.332,3.2421 -6.074,3.2421 -7.09,0 -11.141,-4.9726 -11.141,-15.7031 0,-10.6367 4.051,-15.0898 11.141,-15.0898" /><path
         id="path24"
         style="fill:#f46920;fill-opacity:1;fill-rule:nonzero;stroke:none"
         d="m 312.371,38.6992 v 34.7383 h 11.145 V 26.8438 c -9.426,0 -11.243,-2.0235 -20.871,-2.0235 -9.727,0 -18.028,4.5625 -18.028,17.0156 v 31.6016 h 11.242 V 43.2578 c 0,-6.1797 3.34,-8.5156 9.012,-8.5156 4.66,0 7.5,1.1172 7.5,3.957" /><path
         id="path26"
         style="fill:#f46920;fill-opacity:1;fill-rule:nonzero;stroke:none"
         d="m 336.355,26.0313 v 47.4062 h 10.54 v -4.4531 c 2.832,4.4531 7.597,5.9765 12.253,5.9765 2.032,0 3.645,-0.207 5.168,-0.414 V 62.8008 c -1.925,0.918 -4.972,1.3164 -7.804,1.3164 -4.551,0 -8.602,-1.8242 -8.809,-5.7695 C 347.5,50.3516 347.5,38.0938 347.5,26.0313 h -11.145" /><path
         id="path28"
         style="fill:#f46920;fill-opacity:1;fill-rule:nonzero;stroke:none"
         d="m 411.609,49.8438 c 0,-14.8946 -8.613,-25.2266 -21.882,-25.2266 -13.067,0 -21.778,10.332 -21.778,25.2266 0,15.0859 8.711,25.0156 21.778,25.0156 13.269,0 21.882,-9.9297 21.882,-25.0156 z m -31.609,0 c 0,-10.2344 4.461,-15.2969 10.027,-15.2969 5.481,0 9.629,4.6601 9.629,15.2969 0,10.125 -4.461,15.1953 -10.125,15.1953 -5.48,0 -9.531,-4.5625 -9.531,-15.1953" /><path
         id="path30"
         style="fill:#f46920;fill-opacity:1;fill-rule:nonzero;stroke:none"
         d="m 436.805,74.8594 c 3.746,0 6.89,-0.3125 10.953,-1.4219 V 62.9063 c -4.766,1.9257 -8.106,2.4335 -11.352,2.4335 -3.847,0 -6.281,-1.621 -6.281,-4.0507 0,-7.2969 19.859,-6.586 19.859,-21.1719 0,-7.9024 -5.683,-15.5 -18.843,-15.5 -4.161,0 -8.407,0.3984 -12.364,1.6211 v 9.9336 c 3.848,-1.3203 8.411,-1.9375 11.653,-1.9375 5.371,0 8.105,2.0312 8.105,5.1679 0,8.0079 -19.961,6.7852 -19.961,20.6641 0,9.1211 6.895,14.793 18.231,14.793" /><path
         id="path32"
         style="fill:#f46920;fill-opacity:1;fill-rule:nonzero;stroke:none"
         d="m 747.191,213.523 4.317,10.008 c 1.68,-0.105 3.359,-0.183 5.078,-0.183 9.414,0 19.531,1.824 30.508,7.058 l -7.324,15.383 c -7.422,-3.535 -14.336,-5.039 -20.977,-5.312 -6.074,-0.254 -11.953,0.515 -17.793,1.757 l -14.844,-34.461 9.219,-11.781 c 12.07,1.985 21.27,-0.719 25.176,-7.422 2.969,-5.086 2.402,-11.941 -1.406,-16.656 -5.079,-6.328 -14.668,-7.805 -26.348,-4.062 l -5.195,-16.223 c 5.859,-1.887 11.562,-2.813 16.914,-2.813 11.484,0 21.367,4.27 27.929,12.422 8.243,10.262 9.375,24.707 2.813,35.926 -2.91,4.984 -10.82,14.945 -28.067,16.359" /><path
         id="path34"
         style="fill:#f46920;fill-opacity:1;fill-rule:nonzero;stroke:none"
         d="m 725.98,245.289 c -2.988,0.805 -6.074,1.625 -9.238,2.367 -14.414,3.414 -30.41,5.328 -48.398,-2.929 l 7.109,-15.481 c 12.266,5.637 23.086,4.973 34.473,2.5 l -32.871,-76.223 15.664,-6.707 40.722,94.543 c -2.48,0.614 -4.941,1.266 -7.461,1.93" /><path
         id="path36"
         style="fill:#0b776e;fill-opacity:1;fill-rule:nonzero;stroke:none"
         d="m 668.246,106.688 c 3.359,7.96 8.34,21.347 9.942,26.425 h 4.14 l 9.492,-26.425 h -4.961 c -0.625,2.062 -1.484,4.718 -2.265,6.984 h -9.102 l -2.539,-6.984 z m 15.098,10.851 c -0.899,2.813 -2.071,5.887 -3.242,8.738 -1.094,-2.761 -2.305,-6.199 -3.204,-8.738 h 6.446" /><path
         id="path38"
         style="fill:#0b776e;fill-opacity:1;fill-rule:nonzero;stroke:none"
         d="m 699.105,120.039 v -13.351 h -4.296 v 17.871 c 3.828,0 4.296,0.898 8.281,0.898 3.515,0 6.68,-1.68 6.68,-6.512 v -12.257 h -4.297 v 11.75 c 0,2.343 -1.328,3.203 -3.399,3.203 -1.875,0 -2.969,-0.625 -2.969,-1.602" /><path
         id="path40"
         style="fill:#0b776e;fill-opacity:1;fill-rule:nonzero;stroke:none"
         d="m 720.219,130.457 c 0,-1.523 -1.016,-2.578 -2.539,-2.578 -1.68,0 -2.637,1.055 -2.637,2.578 0,1.406 0.957,2.5 2.637,2.5 1.523,0 2.539,-1.094 2.539,-2.5 z m -0.235,-5.508 c -0.117,-5.261 -0.156,-12.84 -0.156,-18.261 h -4.336 v 18.261 h 4.492" /><path
         id="path42"
         style="fill:#0b776e;fill-opacity:1;fill-rule:nonzero;stroke:none"
         d="m 729.32,106.57 -6.64,18.379 h 4.883 c 1.054,-3.699 2.109,-7.136 3.437,-10.691 0.195,-0.547 0.43,-1.172 0.664,-1.172 0.195,0 0.469,0.703 0.664,1.211 l 3.633,10.652 h 4.492 c -2.265,-5.261 -5.195,-13.308 -6.797,-18.379 h -4.336" /><path
         id="path44"
         style="fill:#0b776e;fill-opacity:1;fill-rule:nonzero;stroke:none"
         d="m 746.723,115.313 c 0,-0.157 0,-0.43 0,-0.586 0,-3.008 2.031,-4.922 5.039,-4.922 1.406,0 3.086,0.156 4.57,0.82 v -3.82 c -1.602,-0.508 -3.477,-0.664 -4.766,-0.664 -5.507,0 -9.453,3.007 -9.453,9.836 0,5.898 3.711,9.519 8.828,9.519 4.844,0 6.954,-3.269 6.954,-7.605 0,-0.664 -0.04,-1.485 -0.196,-2.578 z m 5.859,3.398 c 0.586,0 0.859,0.312 0.859,0.82 0,1.407 -0.82,2.422 -2.734,2.422 -2.07,0 -3.281,-1.367 -3.594,-3.242 h 5.469" /><path
         id="path46"
         style="fill:#0b776e;fill-opacity:1;fill-rule:nonzero;stroke:none"
         d="m 762.25,106.688 v 18.261 h 4.063 v -1.719 c 1.093,1.719 2.929,2.305 4.726,2.305 0.781,0 1.406,-0.078 1.992,-0.156 v -4.52 c -0.742,0.352 -1.914,0.508 -3.008,0.508 -1.757,0 -3.32,-0.703 -3.398,-2.226 -0.078,-3.086 -0.078,-7.813 -0.078,-12.453 h -4.297" /><path
         id="path48"
         style="fill:#0b776e;fill-opacity:1;fill-rule:nonzero;stroke:none"
         d="m 782.328,125.496 c 1.445,0 2.656,-0.117 4.219,-0.547 v -4.051 c -1.836,0.743 -3.125,0.938 -4.375,0.938 -1.484,0 -2.422,-0.625 -2.422,-1.563 0,-2.812 7.637,-2.539 7.637,-8.164 0,-3.046 -2.168,-5.968 -7.246,-5.968 -1.602,0 -3.243,0.156 -4.766,0.625 v 3.82 c 1.484,-0.508 3.242,-0.742 4.492,-0.742 2.071,0 3.125,0.781 3.125,1.992 0,3.086 -7.695,2.617 -7.695,7.969 0,3.515 2.656,5.691 7.031,5.691" /><path
         id="path50"
         style="fill:#0b776e;fill-opacity:1;fill-rule:nonzero;stroke:none"
         d="m 800.629,118.75 v 0.703 c 0,1.485 -1.016,2.383 -2.852,2.383 -1.875,0 -3.75,-0.352 -5.703,-1.25 v 4.012 c 2.031,0.586 3.867,0.898 6.055,0.898 4.219,0 6.836,-1.719 6.836,-6.004 0,-3.008 -0.117,-5.625 -0.117,-8.515 0,-1.524 0.078,-3.204 0.195,-4.172 -3.125,0 -4.805,-0.508 -7.461,-0.508 -4.531,0 -6.797,2.109 -6.797,5.656 0,3.633 2.969,6.602 9.844,6.797 z m 0,-3.203 c -3.555,-0.117 -5.391,-1.211 -5.391,-3.281 0,-1.407 1.094,-2.383 2.774,-2.383 1.562,0 2.304,0.43 2.461,0.976 0.117,0.586 0.156,2.344 0.156,4.688" /><path
         id="path52"
         style="fill:#0b776e;fill-opacity:1;fill-rule:nonzero;stroke:none"
         d="m 810.492,106.688 v 18.261 h 4.063 v -1.719 c 1.093,1.719 2.929,2.305 4.726,2.305 0.782,0 1.407,-0.078 1.992,-0.156 v -4.52 c -0.742,0.352 -1.914,0.508 -3.007,0.508 -1.758,0 -3.321,-0.703 -3.399,-2.226 -0.078,-3.086 -0.078,-7.813 -0.078,-12.453 h -4.297" /><path
         id="path54"
         style="fill:#0b776e;fill-opacity:1;fill-rule:nonzero;stroke:none"
         d="m 829.438,130.457 c 0,-1.523 -1.016,-2.578 -2.54,-2.578 -1.679,0 -2.656,1.055 -2.656,2.578 0,1.406 0.977,2.5 2.656,2.5 1.524,0 2.54,-1.094 2.54,-2.5 z m -0.235,-5.508 c -0.117,-5.261 -0.156,-12.84 -0.156,-18.261 h -4.336 v 18.261 h 4.492" /><path
         id="path56"
         style="fill:#0b776e;fill-opacity:1;fill-rule:nonzero;stroke:none"
         d="m 850.395,115.859 c 0,-5.742 -3.321,-9.718 -8.438,-9.718 -5.039,0 -8.398,3.976 -8.398,9.718 0,5.821 3.359,9.637 8.398,9.637 5.117,0 8.438,-3.816 8.438,-9.637 z m -12.188,0 c 0,-3.945 1.719,-5.898 3.867,-5.898 2.11,0 3.711,1.797 3.711,5.898 0,3.907 -1.719,5.86 -3.906,5.86 -2.109,0 -3.672,-1.758 -3.672,-5.86" /></g></g></svg>