<?xml version="1.0" encoding="UTF-8" standalone="no"?>
<!-- Generator: Adobe Illustrator 13.0.2, SVG Export Plug-In  -->

<svg
   xmlns:dc="http://purl.org/dc/elements/1.1/"
   xmlns:cc="http://creativecommons.org/ns#"
   xmlns:rdf="http://www.w3.org/1999/02/22-rdf-syntax-ns#"
   xmlns:svg="http://www.w3.org/2000/svg"
   xmlns="http://www.w3.org/2000/svg"
   xmlns:sodipodi="http://sodipodi.sourceforge.net/DTD/sodipodi-0.dtd"
   xmlns:inkscape="http://www.inkscape.org/namespaces/inkscape"
   version="1.1"
   x="0px"
   y="0px"
   width="99"
   height="48"
   viewBox="-0.271 -0.07 99 48"
   enable-background="new -0.271 -0.07 135 29"
   xml:space="preserve"
   id="svg2"
   inkscape:version="0.48.4 r9939"
   sodipodi:docname="Mapfre logo.svg"><title
   id="title3001">Mapfre logo</title><metadata
   id="metadata24"><rdf:RDF><cc:Work
       rdf:about=""><dc:format>image/svg+xml</dc:format><dc:type
         rdf:resource="http://purl.org/dc/dcmitype/StillImage" /><dc:title>Mapfre logo</dc:title></cc:Work></rdf:RDF></metadata><sodipodi:namedview
   pagecolor="#ffffff"
   bordercolor="#666666"
   borderopacity="1"
   objecttolerance="10"
   gridtolerance="10"
   guidetolerance="10"
   inkscape:pageopacity="0"
   inkscape:pageshadow="2"
   inkscape:window-width="1600"
   inkscape:window-height="844"
   id="namedview22"
   showgrid="false"
   inkscape:zoom="9.8120089"
   inkscape:cx="40.938051"
   inkscape:cy="27.248869"
   inkscape:window-x="-4"
   inkscape:window-y="-4"
   inkscape:window-maximized="1"
   inkscape:current-layer="svg2" />
<defs
   id="defs4">
</defs>
<polygon
   points="48.119,20.217 48.119,13.23 44.708,20.217 41.297,13.23 41.297,20.217 36.138,20.217 36.138,6.245 41.297,6.245 44.708,13.23 48.119,6.245 53.278,6.246 53.278,20.217 "
   id="polygon6"
   style="fill:#be002f"
   transform="translate(-35.87142,27.3678)" />
<path
   d="m 27.63358,35.7058 -2.095,7.293 h 4.19 l -2.095,-7.293 z m -8.57,11.879 4.012,-13.972 h 9.116 l 4.013,13.972 h -5.159 l -0.658,-2.293 h -5.506 l -0.659,2.293 h -5.159 z"
   id="path8"
   inkscape:connector-curvature="0"
   style="fill:#be002f" />
<path
   clip-rule="evenodd"
   d="m 44.21258,35.2198 c 1.163,0 2.293,0.622 2.293,1.889 0,1.266 -0.997,2.292 -2.293,2.292 h -1.119 v -4.181 h 1.119 z m 3.291,-1.6 c 2.249,0 4.073,1.823 4.073,4.072 0,2.249 -1.824,4.072 -4.073,4.072 h -4.497 v 5.82 h -5.158 v -13.964 h 9.655 z"
   id="path10"
   inkscape:connector-curvature="0"
   style="fill:#be002f;fill-rule:evenodd" />
<polygon
   points="94.396,14.384 94.396,20.217 89.237,20.217 89.237,6.245 102.952,6.245 102.952,8.538 94.396,8.538 94.396,12.091 102.952,12.091 102.952,14.384 "
   id="polygon12"
   style="fill:#be002f"
   transform="translate(-35.87142,27.3678)" />
<polygon
   points="134.136,6.245 134.136,8.538 125.579,8.538 125.579,12.091 134.136,12.091 134.136,14.384 125.579,14.384 125.579,17.924 134.136,17.924 134.136,20.217 120.421,20.217 120.421,6.245 "
   id="polygon14"
   style="fill:#be002f"
   transform="translate(-35.87142,27.3678)" />
<path
   clip-rule="evenodd"
   d="m 75.24858,35.2218 c 1.133,0 2.293,0.622 2.293,1.888 0,1.266 -1.025,2.292 -2.293,2.292 h -1.117 v -4.18 h 1.117 z m 7.363,8.755 v 0.115 c 0,-0.038 0.002,-0.076 0,-0.115 z m 0,0.116 v 3.492 h -3.492 -1.582 v -3.38 c 0.002,-0.037 0.004,-0.074 0.004,-0.112 0,-1.266 -1.027,-2.292 -2.293,-2.292 h -1.117 v 5.784 h -5.246 v -6.984 -6.983 h 5.73 4.504 c 1.928,0 3.492,1.563 3.492,3.491 0,1.928 -1.563,3.491 -3.492,3.491 1.891,0 3.432,1.502 3.492,3.377 0.002,0.039 0,0.077 0,0.116 z"
   id="path16"
   inkscape:connector-curvature="0"
   style="fill:#be002f;fill-rule:evenodd" />
<path
   d="m 50.130687,0.2764538 c 7.716,0 13.972,6.255 13.972,13.9710002 0,7.717 -6.256,13.971 -13.972,13.971 -7.717,-0.001 -13.971,-6.254 -13.971,-13.971 0,-7.7160002 6.254,-13.9710002 13.971,-13.9710002 z m 0,1.331 c -6.982,0 -12.641,5.659 -12.641,12.6400002 0,6.981 5.659,12.641 12.641,12.641 6.982,0 12.64,-5.659 12.64,-12.641 -0.001,-6.9810002 -5.659,-12.6400002 -12.64,-12.6400002 z"
   id="path18"
   inkscape:connector-curvature="0"
   style="fill:#be002f" />
<path
   clip-rule="evenodd"
   d="m 50.815687,16.956454 v 4.281 h -1.37 v -4.281 c -0.655,0 -1.51,-0.003 -1.833,-0.015 l -4.546,0.012 c -0.384,0.02 -0.78,-0.069 -1.137,-0.274 -0.69,-0.398 -1.062,-1.135 -1.032,-1.875 0.001,-0.109 0.014,-0.205 0.027,-0.281 0.161,-0.906 0.48,-1.799 0.965,-2.638 0.486,-0.844 1.104,-1.569 1.813,-2.163 0.475,-0.352 1.141,-0.527 1.753,-0.42 0.173,-0.585 0.579,-1.068 1.107,-1.3440002 0.101,-0.058 0.194,-0.097 0.272,-0.125 1.03,-0.373 2.141,-0.575 3.295,-0.575 1.161,0 2.276,0.204 3.312,0.581 0.596,0.2590002 1.127,0.8000002 1.35,1.4450002 0.584,-0.134 1.189,-0.003 1.666,0.358 0.707,0.595 1.428,1.398 1.914,2.242 0.484,0.839 0.803,1.731 0.965,2.638 0.014,0.076 0.025,0.172 0.025,0.281 0.031,0.74 -0.34,1.477 -1.031,1.875 -0.357,0.205 -0.752,0.294 -1.137,0.274 l -4.545,-0.012 c -0.324,0.013 -1.177,0.016 -1.833,0.016 z m 4.863,-6.186 c 0.588,0.494 1.1,1.097 1.506,1.799 0.404,0.699 0.668,1.441 0.803,2.193 0.006,0.027 0.006,0.049 0.004,0.067 0.021,0.261 -0.104,0.522 -0.346,0.661 -0.127,0.074 -0.27,0.104 -0.406,0.092 l -4.625,-0.013 c -0.129,0.012 -0.26,-0.052 -0.328,-0.171 -0.068,-0.118 -0.061,-0.26 0.01,-0.365 l 2.303,-4.012 c 0.059,-0.129 0.156,-0.241 0.287,-0.317 0.25,-0.145 0.553,-0.116 0.77,0.048 0.006,0.006 0.014,0.012 0.022,0.018 z m -11.073,-0.017 c 0.217,-0.164 0.52,-0.192 0.77,-0.048 0.132,0.076 0.229,0.188 0.287,0.317 l 2.302,4.012 c 0.07,0.105 0.08,0.247 0.012,0.365 -0.069,0.119 -0.2,0.183 -0.329,0.171 l -4.624,0.013 c -0.138,0.012 -0.279,-0.018 -0.407,-0.092 -0.241,-0.139 -0.368,-0.4 -0.346,-0.661 -0.002,-0.019 -0.001,-0.04 0.005,-0.067 0.134,-0.752 0.398,-1.494 0.802,-2.193 0.406,-0.702 0.919,-1.305 1.507,-1.799 0.007,-0.007 0.014,-0.013 0.021,-0.018 z m 8.401,-1.614 c 0.309,0.13 0.523,0.436 0.523,0.79 0,0.187 -0.059,0.359 -0.16,0.501 l -2.858,4.918 c -0.069,0.141 -0.214,0.237 -0.381,0.237 -0.171,0 -0.318,-0.101 -0.386,-0.246 l -2.856,-4.917 c -0.096,-0.139 -0.152,-0.308 -0.152,-0.489 0,-0.343 0.2,-0.638 0.491,-0.774 0.019,-0.014 0.043,-0.025 0.074,-0.037 0.884,-0.32 1.836,-0.494 2.829,-0.494 0.998,0 1.956,0.176 2.843,0.498 0.011,0.004 0.023,0.009 0.033,0.013 z"
   id="path20"
   inkscape:connector-curvature="0"
   style="fill:#be002f;fill-rule:evenodd" />
</svg>